<mxfile host="app.diagrams.net" agent="Mozilla/5.0 (X11; Linux x86_64) AppleWebKit/537.36 (KHTML, like Gecko) Chrome/131.0.0.0 Safari/537.36" version="25.0.3">
  <diagram name="Page-1" id="2bWOMn6UrezAYOFXQtko">
    <mxGraphModel dx="1068" dy="730" grid="1" gridSize="10" guides="1" tooltips="1" connect="1" arrows="1" fold="1" page="1" pageScale="1" pageWidth="850" pageHeight="1100" math="0" shadow="0">
      <root>
        <mxCell id="0" />
        <mxCell id="1" parent="0" />
        <mxCell id="AUFw20jNLjg2pBhTvbI4-1" value="" style="verticalLabelPosition=bottom;shadow=0;dashed=0;align=center;html=1;verticalAlign=top;shape=mxgraph.electrical.transistors.npn_transistor_5;" vertex="1" parent="1">
          <mxGeometry x="310" y="470" width="64" height="100" as="geometry" />
        </mxCell>
        <mxCell id="AUFw20jNLjg2pBhTvbI4-2" value="" style="verticalLabelPosition=bottom;shadow=0;dashed=0;align=center;html=1;verticalAlign=top;shape=mxgraph.electrical.transistors.npn_transistor_5;" vertex="1" parent="1">
          <mxGeometry x="310" y="610" width="64" height="100" as="geometry" />
        </mxCell>
        <mxCell id="AUFw20jNLjg2pBhTvbI4-3" value="" style="pointerEvents=1;verticalLabelPosition=bottom;shadow=0;dashed=0;align=center;html=1;verticalAlign=top;shape=mxgraph.electrical.resistors.resistor_1;" vertex="1" parent="1">
          <mxGeometry x="220" y="650" width="100" height="20" as="geometry" />
        </mxCell>
        <mxCell id="AUFw20jNLjg2pBhTvbI4-4" value="" style="pointerEvents=1;verticalLabelPosition=bottom;shadow=0;dashed=0;align=center;html=1;verticalAlign=top;shape=mxgraph.electrical.resistors.resistor_1;" vertex="1" parent="1">
          <mxGeometry x="220" y="510" width="100" height="20" as="geometry" />
        </mxCell>
        <mxCell id="AUFw20jNLjg2pBhTvbI4-5" value="" style="pointerEvents=1;verticalLabelPosition=bottom;shadow=0;dashed=0;align=center;html=1;verticalAlign=top;shape=mxgraph.electrical.signal_sources.signal_ground;" vertex="1" parent="1">
          <mxGeometry x="351.25" y="800" width="45" height="30" as="geometry" />
        </mxCell>
        <mxCell id="AUFw20jNLjg2pBhTvbI4-6" value="V&lt;sub&gt;dd&lt;/sub&gt;" style="verticalLabelPosition=top;verticalAlign=bottom;shape=mxgraph.electrical.signal_sources.vdd;shadow=0;dashed=0;align=center;strokeWidth=1;fontSize=24;html=1;flipV=1;" vertex="1" parent="1">
          <mxGeometry x="340.5" y="431" width="66.5" height="40" as="geometry" />
        </mxCell>
        <mxCell id="AUFw20jNLjg2pBhTvbI4-7" value="" style="endArrow=none;html=1;rounded=0;entryX=1;entryY=1;entryDx=0;entryDy=0;entryPerimeter=0;exitX=1;exitY=0;exitDx=0;exitDy=0;exitPerimeter=0;" edge="1" parent="1" source="AUFw20jNLjg2pBhTvbI4-2" target="AUFw20jNLjg2pBhTvbI4-1">
          <mxGeometry width="50" height="50" relative="1" as="geometry">
            <mxPoint x="300" y="630" as="sourcePoint" />
            <mxPoint x="350" y="580" as="targetPoint" />
          </mxGeometry>
        </mxCell>
        <mxCell id="AUFw20jNLjg2pBhTvbI4-8" value="" style="pointerEvents=1;verticalLabelPosition=bottom;shadow=0;dashed=0;align=center;html=1;verticalAlign=top;shape=mxgraph.electrical.resistors.resistor_1;rotation=90;" vertex="1" parent="1">
          <mxGeometry x="323.75" y="740" width="100" height="20" as="geometry" />
        </mxCell>
        <mxCell id="AUFw20jNLjg2pBhTvbI4-9" value="" style="endArrow=none;html=1;rounded=0;exitX=0.116;exitY=0.462;exitDx=0;exitDy=0;exitPerimeter=0;" edge="1" parent="1">
          <mxGeometry width="50" height="50" relative="1" as="geometry">
            <mxPoint x="374.5100000000001" y="704.6" as="sourcePoint" />
            <mxPoint x="650" y="705" as="targetPoint" />
          </mxGeometry>
        </mxCell>
      </root>
    </mxGraphModel>
  </diagram>
</mxfile>
